<?xml version="1.0" encoding="utf-8"?>
<!-- Generator: Adobe Illustrator 16.0.0, SVG Export Plug-In . SVG Version: 6.00 Build 0)  -->
<!DOCTYPE svg PUBLIC "-//W3C//DTD SVG 1.1//EN" "http://www.w3.org/Graphics/SVG/1.1/DTD/svg11.dtd">
<svg version="1.1"
	 id="svg2" inkscape:output_extension="org.inkscape.output.svg.inkscape" sodipodi:version="0.32" inkscape:version="0.46" sodipodi:docname="octopussy.svg" xmlns:dc="http://purl.org/dc/elements/1.1/" xmlns:cc="http://creativecommons.org/ns#" xmlns:rdf="http://www.w3.org/1999/02/22-rdf-syntax-ns#" xmlns:svg="http://www.w3.org/2000/svg" xmlns:sodipodi="http://sodipodi.sourceforge.net/DTD/sodipodi-0.dtd" xmlns:inkscape="http://www.inkscape.org/namespaces/inkscape"
	 xmlns="http://www.w3.org/2000/svg" xmlns:xlink="http://www.w3.org/1999/xlink" x="0px" y="0px" width="56.737px"
	 height="47.41px" viewBox="-114.131 584.781 56.737 47.41" enable-background="new -114.131 584.781 56.737 47.41"
	 xml:space="preserve">
<defs>
	
	
		<inkscape:perspective  inkscape:persp3d-origin="372.04724 : 350.78739 : 1" inkscape:vp_z="744.09448 : 526.18109 : 1" inkscape:vp_y="0 : 1000 : 0" id="perspective10" inkscape:vp_x="0 : 526.18109 : 1" sodipodi:type="inkscape:persp3d">
		</inkscape:perspective>
	
		<inkscape:perspective  inkscape:persp3d-origin="372.04724 : 350.78739 : 1" inkscape:vp_z="744.09448 : 526.18109 : 1" inkscape:vp_y="0 : 1000 : 0" id="perspective2467" inkscape:vp_x="0 : 526.18109 : 1" sodipodi:type="inkscape:persp3d">
		</inkscape:perspective>
</defs>
<sodipodi:namedview  inkscape:pageshadow="2" inkscape:window-height="944" inkscape:pageopacity="0.0" inkscape:window-width="1272" inkscape:window-x="0" inkscape:document-units="px" inkscape:window-y="0" inkscape:current-layer="layer1" showgrid="false" inkscape:cy="300.94385" inkscape:cx="280.82145" inkscape:zoom="1" borderopacity="1.0" bordercolor="#666666" pagecolor="#ffffff" id="base">
	</sodipodi:namedview>
<g id="layer1" transform="translate(-132.5944,-232.40342)" inkscape:groupmode="layer" inkscape:label="Capa 1">
	<g id="g5285">
		
			<linearGradient id="path2477_1_" gradientUnits="userSpaceOnUse" x1="168.8786" y1="-187.6088" x2="176.9789" y2="-188.0934" gradientTransform="matrix(1 0 0 -1 -132.5942 657.3752)">
			<stop  offset="0" style="stop-color:#5A4F60"/>
			<stop  offset="1" style="stop-color:#252120"/>
		</linearGradient>
		<path id="path2477" sodipodi:nodetypes="cccccccss" fill="url(#path2477_1_)" d="M39.009,843.699
			c-0.882-0.338-1.919,1.237-2.871,1.276c-2.445,0.738-5.25-5.93-2.115-4.724c0.889,0.949-0.542,1.495,0.478,1.77
			c1.199-0.377,1.637-1.55,0.23-2.598c-2.521-0.994-3.877-0.925-4.917,2.51c0.477,6.097,4.624,6.312,9.26,7.832
			c0.87,0.339,2.122,1.886,2.82,1.293C43.755,849.481,41.329,844.589,39.009,843.699z"/>
		
			<linearGradient id="path3617_1_" gradientUnits="userSpaceOnUse" x1="162.4303" y1="-182.1273" x2="164.601" y2="-184.1746" gradientTransform="matrix(1 0 0 -1 -132.5942 657.3752)">
			<stop  offset="0" style="stop-color:#BFBBC0"/>
			<stop  offset="1" style="stop-color:#BFBBC0;stop-opacity:0"/>
		</linearGradient>
		<path id="path3617" fill="url(#path3617_1_)" d="M32.361,839.186c-1.21,0.1-1.798,1.287-2.124,2.239
			c-0.265,0.608-0.306,1.362,0.083,1.938c0.232-0.715,0.265-1.486,0.683-2.151c0.335-0.841,1.055-1.513,1.962-1.797
			C33.716,839.214,32.567,839.19,32.361,839.186z"/>
		
			<linearGradient id="path3626_1_" gradientUnits="userSpaceOnUse" x1="336.9875" y1="69.6871" x2="339.3847" y2="67.019" gradientTransform="matrix(1 0 0 -1 -300.8857 913.3489)">
			<stop  offset="0" style="stop-color:#ACA8AE"/>
			<stop  offset="1" style="stop-color:#ACA8AE;stop-opacity:0"/>
		</linearGradient>
		<path id="path3626" fill="url(#path3626_1_)" d="M38.687,844.233c-0.823-0.01-1.753,1.289-2.616,1.324
			c-0.397,0.12-0.807,0.043-1.196-0.162c0.607,0.631,1.327,1.015,2.019,0.807c0.952-0.039,1.989-1.615,2.872-1.277
			c0.151,0.059,0.302,0.133,0.452,0.223c-0.411-0.396-0.846-0.7-1.278-0.866C38.856,844.249,38.772,844.233,38.687,844.233z"/>
		
			<linearGradient id="path2479_1_" gradientUnits="userSpaceOnUse" x1="173.0651" y1="-183.3754" x2="179.3786" y2="-185.4726" gradientTransform="matrix(1 0 0 -1 -132.5942 657.3752)">
			<stop  offset="0" style="stop-color:#5A4F60"/>
			<stop  offset="1" style="stop-color:#252120"/>
		</linearGradient>
		<path id="path2479" sodipodi:nodetypes="cccccccss" fill="url(#path2479_1_)" d="M42.896,840.498
			c-0.562-0.563-1.981,0.322-2.743,0.031c-2.203-0.248-1.844-6.43,0.154-4.424c0.333,1.046-1,0.991-0.305,1.551
			c1.085,0.11,1.88-0.662,1.178-1.961c-1.598-1.633-2.688-2.037-4.823,0.307c-1.967,4.948,1.206,6.519,4.261,9.28
			c0.553,0.561,0.942,2.197,1.718,1.969C44.402,846.642,44.376,841.981,42.896,840.498z"/>
		
			<linearGradient id="path3665_1_" gradientUnits="userSpaceOnUse" x1="135.9362" y1="5.3414" x2="139.8179" y2="1.778" gradientTransform="matrix(1 0 0 -1 -100.4731 840.6682)">
			<stop  offset="0" style="stop-color:#BFBBC0"/>
			<stop  offset="1" style="stop-color:#BFBBC0;stop-opacity:0"/>
		</linearGradient>
		<path id="path3665" sodipodi:nodetypes="ccccccc" fill="url(#path3665_1_)" d="M38.837,834.571
			c-1.089,0.153-1.926,0.979-2.522,1.78c-0.518,1.352-0.826,2.919-0.225,4.288c-0.45-2.283,0.469-5.518,3.448-5.479
			c0.775,0.189,1.411,0.861,1.876,1.311c-0.239-0.869-1.119-1.476-1.952-1.826C39.261,834.586,39.048,834.551,38.837,834.571z"/>
		
			<linearGradient id="path3674_1_" gradientUnits="userSpaceOnUse" x1="170.2516" y1="-179.5287" x2="171.8095" y2="-181.541" gradientTransform="matrix(1 0 0 -1 -129.5942 660.8752)">
			<stop  offset="0" style="stop-color:#B7B3B8"/>
			<stop  offset="1" style="stop-color:#B7B3B8;stop-opacity:0"/>
		</linearGradient>
		<path id="path3674" fill="url(#path3674_1_)" d="M38.93,840.009c0.215,0.812,0.652,1.475,1.345,1.552
			c0.762,0.292,2.182-0.595,2.745-0.031c0.239,0.24,0.44,0.563,0.601,0.938c-0.179-0.607-0.447-1.135-0.795-1.484
			c-0.563-0.563-1.982,0.323-2.745,0.031C39.553,840.956,39.176,840.554,38.93,840.009z"/>
		
			<linearGradient id="path3277_1_" gradientUnits="userSpaceOnUse" x1="180.2511" y1="-191.9193" x2="173.5181" y2="-186.8156" gradientTransform="matrix(1 0 0 -1 -122.5942 661.3752)">
			<stop  offset="0" style="stop-color:#5A4F60"/>
			<stop  offset="1" style="stop-color:#252120"/>
		</linearGradient>
		<path id="path3277" sodipodi:nodetypes="cccccccss" fill="url(#path3277_1_)" d="M58.669,851.865
			c0.924,0.415,0.336,2.328,0.992,3.068c1.141,2.361,8.828-0.361,5.539-1.833c-1.449,0.021-0.878,1.486-1.848,0.922
			c-0.546-1.169,0.132-2.345,2.039-2.05c2.667,1.166,3.588,2.23,1.424,5.49c-5.52,4.051-8.7,1.104-13.342-1.262
			c-0.917-0.405-3.134-0.224-3.136-1.175C50.33,852.496,56.236,850.773,58.669,851.865z"/>
		
			<linearGradient id="path3298_1_" gradientUnits="userSpaceOnUse" x1="201.7399" y1="-177.6263" x2="196.422" y2="-182.8111" gradientTransform="matrix(1 0 0 -1 -136.4834 659.1428)">
			<stop  offset="0" style="stop-color:#5A4F60"/>
			<stop  offset="1" style="stop-color:#252120"/>
		</linearGradient>
		<path id="path3298" sodipodi:nodetypes="cccccccss" fill="url(#path3298_1_)" d="M58.433,838.46
			c0.968-0.314,1.984,1.434,3.004,1.527c2.581,0.926,6.006-6.083,2.564-4.959c-1.014,0.972,0.49,1.637-0.623,1.875
			c-1.264-0.47-1.663-1.754-0.086-2.803c2.77-0.931,4.003-0.28,4.592,2.85c0.641,4.7-4.823,6.642-9.897,8.022
			c-0.955,0.316-2.396,1.909-3.109,1.235C52.978,844.412,55.886,839.29,58.433,838.46z"/>
		
			<linearGradient id="path3296_1_" gradientUnits="userSpaceOnUse" x1="196.3425" y1="-188.0316" x2="191.6174" y2="-186.3691" gradientTransform="matrix(1 0 0 -1 -132.5942 657.3752)">
			<stop  offset="0" style="stop-color:#5A4F60"/>
			<stop  offset="1" style="stop-color:#252120"/>
		</linearGradient>
		<path id="path3296" sodipodi:nodetypes="cccccccss" fill="url(#path3296_1_)" d="M61.045,843.678
			c0.968-0.315,1.984,1.433,3.004,1.526c2.581,0.926,6.006-6.083,2.564-4.959c-1.014,0.972,0.49,1.637-0.623,1.875
			c-1.264-0.47-1.663-1.754-0.086-2.802c2.77-0.931,4.222-0.783,5.126,2.963c-0.889,6.523-5.357,6.527-10.431,7.908
			c-0.956,0.317-2.396,1.909-3.11,1.235C55.59,849.63,58.498,844.507,61.045,843.678z"/>
		
			<linearGradient id="path2481_1_" gradientUnits="userSpaceOnUse" x1="173.2297" y1="-182.6" x2="184.1974" y2="-182.6" gradientTransform="matrix(1 0 0 -1 -132.5942 657.3752)">
			<stop  offset="0" style="stop-color:#5A4F60"/>
			<stop  offset="1" style="stop-color:#252120"/>
		</linearGradient>
		<path id="path2481" sodipodi:nodetypes="cccccccss" fill="url(#path2481_1_)" d="M49.314,839.045
			c-0.783-0.36-2.144,0.862-3.079,0.811c-2.544,0.398-3.783-5.418-1.002-4.133c0.653,0.872-0.862,1.201,0.069,1.521
			c1.25-0.208,1.939-1.148,0.804-2.148c-2.231-1.054-3.565-1.117-5.344,1.658c-0.898,5.133,3.089,5.681,7.26,7.363
			c0.771,0.36,1.644,1.762,2.456,1.33C52.64,844.295,51.373,839.995,49.314,839.045z"/>
		<path id="path2483" sodipodi:nodetypes="cssssssscscccccccssssc" fill="#5A4F60" d="M53.193,825.941
			c-0.323,0.002-0.632,0.021-0.917,0.06c-2.561,0.342-5.951,1.838-7.716,3.613c-1.334,1.341-2.383,3.815-2.501,5.646
			c-0.104,1.6,1.804,3.563,1.53,5.146c-0.252,1.454-2.557,2.638-2.93,4.068c-0.369,1.415-0.012,3.481,0.592,4.823
			c0.397,0.883,1.313,1.924,2.149,2.474c0.46,0.303,0.986,0.614,1.548,0.917c-0.468,0.081-0.872,0.262-1.166,0.567
			c-0.631,0.655,1.017,1.83,1.378,2.646c1.62,4.352,1.848,8.245,8.345,8.692c3.659-0.976,3.734-2.249,2.674-4.615
			c-1.116-1.32-2.367-0.908-2.769,0.217c0.292,0.957,0.874-0.388,1.885,0.447c1.284,2.941-5.819,0.309-5.033-1.986
			c1.421-3.461,3.581-6.112,7.653-6.92c0.743-1.163,0.623-5.144,0.525-5.667s2.961-2.396,3.734-3.755
			c1.119-1.97,2.295-5.063,1.797-7.246c-0.691-3.027-3.853-6.59-6.666-8.208C56.243,826.25,54.59,825.93,53.193,825.941z"/>
		
			<path id="path2485" sodipodi:ry="29.698484" sodipodi:cy="466.87778" sodipodi:rx="24.04163" sodipodi:cx="395.9798" sodipodi:type="arc" opacity="0.581" fill="#EEEEEC" enable-background="new    " d="
			M56.26,847.318c0,1.495-1.044,2.708-2.334,2.709c-1.29,0.001-2.336-1.211-2.337-2.706c0-0.001,0-0.002,0-0.003
			c0-1.495,1.044-2.708,2.334-2.709c1.29-0.001,2.336,1.211,2.337,2.706C56.26,847.316,56.26,847.317,56.26,847.318z"/>
		
			<path id="path2487" sodipodi:ry="29.698484" sodipodi:cy="466.87778" sodipodi:rx="24.04163" sodipodi:cx="395.9798" sodipodi:type="arc" fill="#5C3566" d="
			M54.887,847.318c0,1.495-0.369,2.708-0.824,2.709c-0.455,0.001-0.824-1.211-0.825-2.706c0-0.001,0-0.002,0-0.003
			c0-1.495,0.369-2.708,0.824-2.709c0.455-0.001,0.824,1.211,0.825,2.706C54.887,847.316,54.887,847.317,54.887,847.318z"/>
		
			<linearGradient id="path2489_1_" gradientUnits="userSpaceOnUse" x1="186.3215" y1="-187.0028" x2="186.3526" y2="-190.9241" gradientTransform="matrix(1 0 0 -1 -132.5942 657.3752)">
			<stop  offset="0" style="stop-color:#EEEEEC"/>
			<stop  offset="1" style="stop-color:#EEEEEC;stop-opacity:0"/>
		</linearGradient>
		<path id="path2489" sodipodi:nodetypes="cscscc" opacity="0.581" fill="url(#path2489_1_)" enable-background="new    " d="
			M53.755,845.006c-1.082,0-0.991-0.621-1.962,2.274c-0.011,0.035,0.001,0.072,0.003,0.108c0.313-0.14,2.154-1.146,2.478-0.976
			l1.438,0.758C55.662,845.967,54.805,845.006,53.755,845.006z"/>
		<path id="path3272" fill="#B0ABB1" d="M42.063,842.657c-0.89-0.032-1.758,1.084-1.963,2.555c-0.199,1.425,0.295,2.678,1.115,2.922
			c-0.137-0.815-0.152-1.724-0.021-2.669C41.34,844.42,41.648,843.464,42.063,842.657z"/>
		<path id="path2473" sodipodi:nodetypes="cccccccss" fill="#5A4F60" d="M38.149,849.251c-0.998,0.221-0.857,2.208-1.665,2.8
			c-1.651,2.08-8.544-2.116-4.996-2.897c1.41,0.311,0.521,1.628,1.596,1.271c0.799-1.033,0.403-2.317-1.526-2.41
			c-2.87,0.607-4.011,1.462-2.637,5.079c4.475,5.062,8.25,2.818,13.322,1.434c0.987-0.213,3.112,0.407,3.331-0.521
			C46.153,851.533,40.773,848.671,38.149,849.251z"/>
		
			<linearGradient id="path3300_1_" gradientUnits="userSpaceOnUse" x1="191.3576" y1="-187.5658" x2="187.7986" y2="-180.5319" gradientTransform="matrix(1 0 0 -1 -129.7661 655.2532)">
			<stop  offset="0" style="stop-color:#2E3436"/>
			<stop  offset="1" style="stop-color:#2E3436;stop-opacity:0"/>
		</linearGradient>
		<path id="path3300" fill="url(#path3300_1_)" d="M59.208,834.175c0.092,0.637,0.143,1.294,0.143,1.963
			c0,2.112-0.481,4.088-1.318,5.775c0.437,0.708,0.755,1.555,0.914,2.487c2.101-0.748,3.609-2.777,3.609-5.163
			C62.556,836.952,61.171,834.993,59.208,834.175z"/>
		<path id="path3308" fill="#2E3436" d="M52.615,841.984c-1.796,0-3.254,1.797-3.254,4.012c0,1.408,0.59,2.646,1.481,3.362
			c-0.201-0.522-0.315-1.105-0.315-1.722c0-2.214,1.458-4.011,3.254-4.011c0.654,0,1.262,0.239,1.773,0.649
			C55.031,842.921,53.913,841.984,52.615,841.984z"/>
		
			<linearGradient id="path3393_1_" gradientUnits="userSpaceOnUse" x1="173.4274" y1="-172.5541" x2="180.2852" y2="-177.6944" gradientTransform="matrix(1 0 0 -1 -132.6382 659.4915)">
			<stop  offset="0" style="stop-color:#EEEEEC"/>
			<stop  offset="1" style="stop-color:#EEEEEC;stop-opacity:0"/>
		</linearGradient>
		<path id="path3393" fill="url(#path3393_1_)" d="M53.233,826.554c-2.887,0.197-5.655,1.443-7.814,3.214
			c-1.614,1.555-2.58,3.758-2.62,5.932c0.272,1.736,1.893,3.225,1.448,5.069c-0.463,1.754-2.751,2.529-2.976,4.373
			c-0.219,2.271,0.495,4.789,2.53,6.191c-0.472-1.757-0.594-3.895,0.841-5.294c0.726-0.825,1.918-1.574,1.934-2.746
			c-0.155-1.82-1.907-3.361-1.475-5.271c0.418-2.911,2.102-5.744,4.878-7.197c2.429-1.403,5.318-2.419,8.216-2.058
			c0.346,0.028,0.839,0.16,1.085,0.187c-1.427-1.354-3.335-2.383-5.419-2.388C53.652,826.552,53.443,826.547,53.233,826.554z"/>
		
			<linearGradient id="path3526_1_" gradientUnits="userSpaceOnUse" x1="161.4621" y1="-191.3217" x2="163.7604" y2="-193.9667" gradientTransform="matrix(1 0 0 -1 -132.5942 657.3752)">
			<stop  offset="0" style="stop-color:#EEEEEC"/>
			<stop  offset="1" style="stop-color:#EEEEEC;stop-opacity:0"/>
		</linearGradient>
		<path id="path3526" fill="url(#path3526_1_)" d="M31.527,848.297c-0.095,0.003-0.19,0.015-0.282,0.04
			c-1.09,0.25-2.533,0.64-2.757,1.844c-0.165,1.014,0.156,2.061,0.568,2.979c0.396,0.512,0.372,0.311,0.179-0.176
			c-0.364-1.128-0.612-2.627,0.446-3.496c0.73-0.612,1.845-0.846,2.684-1.028C32.098,848.372,31.811,848.291,31.527,848.297z
			 M32.52,850.082c-0.004,0.001-0.009,0.005-0.012,0.009c-0.048,0.219,0.211,0.419,0.334,0.244
			C32.789,850.248,32.585,850.058,32.52,850.082z M34.542,852.874c-0.005,0.001-0.003,0.004,0.021,0.006
			C34.559,852.874,34.547,852.873,34.542,852.874z M34.566,852.884c0.041,0.013,0.085,0.025,0.127,0.037v-0.028
			C34.65,852.891,34.608,852.888,34.566,852.884z"/>
		
			<linearGradient id="path3533_1_" gradientUnits="userSpaceOnUse" x1="167.9533" y1="-192.6156" x2="173.3103" y2="-196.0319" gradientTransform="matrix(1 0 0 -1 -132.5942 657.3752)">
			<stop  offset="0" style="stop-color:#EEEEEC"/>
			<stop  offset="1" style="stop-color:#EEEEEC;stop-opacity:0"/>
		</linearGradient>
		<path id="path3533" fill="url(#path3533_1_)" d="M38.64,849.629c-0.441,0.019-0.805,0.274-0.926,0.692
			c-0.328,0.853-0.458,1.862-1.309,2.422c-0.465,0.325-1.112,0.363-1.645,0.324c0.88,0.27,2.087,0.368,2.693-0.444
			c0.657-0.78,0.449-2.064,1.402-2.649c0.536-0.221,1.156-0.172,1.727-0.114c-0.568-0.147-1.157-0.246-1.749-0.225
			C38.768,849.628,38.702,849.626,38.64,849.629z M34.736,853.056c-0.005,0-0.002,0.004,0.021,0.006
			C34.753,853.055,34.741,853.054,34.736,853.056z"/>
		
			<linearGradient id="path3582_1_" gradientUnits="userSpaceOnUse" x1="284.694" y1="-224.5072" x2="287.5647" y2="-226.3924" gradientTransform="matrix(0.9787 0.2053 0.2053 -0.9787 -186.0648 573.7759)">
			<stop  offset="0" style="stop-color:#EEEEEC"/>
			<stop  offset="1" style="stop-color:#EEEEEC;stop-opacity:0"/>
		</linearGradient>
		<path id="path3582" sodipodi:nodetypes="cscscsc" opacity="0.6232" fill="url(#path3582_1_)" enable-background="new    " d="
			M48.802,851.516c-1.437-0.282-2.879,0.72-3.218,2.237c-0.062,0.273-0.082,0.545-0.067,0.808c0.408-1.417,1.792-2.331,3.172-2.06
			c1.178,0.231,1.762,0.453,1.829,1.65c0.017-0.059,0.033-0.117,0.046-0.178C50.903,852.458,50.239,851.799,48.802,851.516z"/>
		
			<linearGradient id="path3599_1_" gradientUnits="userSpaceOnUse" x1="184.1134" y1="-199.9589" x2="181.3739" y2="-196.2409" gradientTransform="matrix(1 0 0 -1 -132.5942 657.3752)">
			<stop  offset="0" style="stop-color:#4B424E"/>
			<stop  offset="1" style="stop-color:#4B424E;stop-opacity:0"/>
		</linearGradient>
		<path id="path3599" fill="url(#path3599_1_)" d="M52.62,854.409l-2.335-1.418l-2.061-0.387l0.756,4.577l1.305,2.901l0.344,0.129
			l-0.824-1.547l0.618-1.226L52.62,854.409z"/>
		<path id="path3717" fill="#2E3436" d="M58.754,852.185c0.179,0.786-0.016,1.682,0.525,2.356c-0.246-0.768,0.056-1.72-0.528-2.364
			L58.754,852.185z M59.279,854.542C59.281,854.556,59.285,854.542,59.279,854.542z M64.415,852.87
			c-0.5,0.013-0.829,0.528-0.92,0.917c-0.021,0.238,0.385,0.402,0.438,0.103c0.147-0.399,0.538-0.752,0.926-0.849
			C64.725,852.969,64.585,852.826,64.415,852.87z M67.533,853.636c0.254,1.284-0.531,2.494-1.22,3.544
			c-1.77,1.337-4.061,2.355-6.384,1.972c2.101,0.608,4.35-0.057,6.077-1.226c0.919-0.444,1.3-1.412,1.672-2.262
			C67.942,855.031,68.01,854.138,67.533,853.636z M51.232,855.63c0.412,0.12,1.039,0.197,1.317,0.233
			C52.136,855.746,51.561,855.676,51.232,855.63z"/>
		<path id="path5266" fill="#2E3436" d="M66.491,840.039c-0.682-0.065-0.9,0.74-0.607,1.211c0.14,0.243,0.006,0.549-0.185,0.675
			c0.159,0.191,0.588,0.042,0.395-0.214c-0.342-0.608-0.061-1.575,0.737-1.646C66.723,840.033,66.605,840.026,66.491,840.039z
			 M70.132,840.611c0.244,0.695,0.555,1.428,0.288,2.165c-0.346,2.062-1.456,4.127-3.445,5.177
			c-2.225,1.243-4.881,1.446-7.283,2.263c-0.68,0.395-1.411,0.97-2.067,1.239c0.661,0.154,1.192-0.44,1.708-0.721
			c1.079-0.876,2.583-0.924,3.894-1.313c2.265-0.533,4.791-1.231,6.135-3.186c0.816-1.17,1.24-2.561,1.354-3.94
			c-0.153-0.605-0.331-1.202-0.61-1.755L70.132,840.611z"/>
		
			<linearGradient id="path5279_1_" gradientUnits="userSpaceOnUse" x1="262.4733" y1="-205.6503" x2="259.1789" y2="-201.7172" gradientTransform="matrix(1 0 0 -1 -219.4732 650.5569)">
			<stop  offset="0" style="stop-color:#4B424E"/>
			<stop  offset="1" style="stop-color:#4B424E;stop-opacity:0"/>
		</linearGradient>
		<path id="path5279" sodipodi:nodetypes="czccc" fill="url(#path5279_1_)" d="M44.18,853.788c-0.021-0.988-1.062-1.768-1.854-2.353
			c-0.771-0.57-2.542,0.548-2.542,0.548l-1.202,3.352C40.941,854.424,42.35,854.324,44.18,853.788z"/>
	</g>
	<polygon id="rect5283" opacity="0.6232" fill="#2E3436" enable-background="new    " points="19.539,817.184 36.636,817.184 
		36.636,817.184 	"/>
</g>
</svg>
