<?xml version="1.0" encoding="UTF-8" standalone="no"?>
<svg
   xmlns:dc="http://purl.org/dc/elements/1.1/"
   xmlns:cc="http://creativecommons.org/ns#"
   xmlns:rdf="http://www.w3.org/1999/02/22-rdf-syntax-ns#"
   xmlns:svg="http://www.w3.org/2000/svg"
   xmlns="http://www.w3.org/2000/svg"
   xmlns:sodipodi="http://sodipodi.sourceforge.net/DTD/sodipodi-0.dtd"
   xmlns:inkscape="http://www.inkscape.org/namespaces/inkscape"
   width="598.28351"
   height="904.6944"
   id="svg3017"
   version="1.1"
   inkscape:version="0.48.2 r9819"
   sodipodi:docname="pitch11.svg">
  <metadata
     id="metadata3047">
    <rdf:RDF>
      <cc:Work
         rdf:about="">
        <dc:format>image/svg+xml</dc:format>
        <dc:type
           rdf:resource="http://purl.org/dc/dcmitype/StillImage" />
        <dc:title>soccer pitch</dc:title>
      </cc:Work>
    </rdf:RDF>
  </metadata>
  <defs
     id="defs3045" />
  <sodipodi:namedview
     pagecolor="#ffffff"
     bordercolor="#666666"
     borderopacity="1"
     objecttolerance="10"
     gridtolerance="10"
     guidetolerance="10"
     inkscape:pageopacity="0"
     inkscape:pageshadow="2"
     inkscape:window-width="1680"
     inkscape:window-height="988"
     id="namedview3043"
     showgrid="false"
     inkscape:zoom="1.0680556"
     inkscape:cx="339.40182"
     inkscape:cy="657.39272"
     inkscape:window-x="-8"
     inkscape:window-y="-8"
     inkscape:window-maximized="1"
     inkscape:current-layer="g3021"
     inkscape:snap-to-guides="true"
     inkscape:snap-page="false"
     inkscape:snap-bbox="false"
     showborder="true"
     fit-margin-top="0"
     fit-margin-left="0"
     fit-margin-right="0"
     fit-margin-bottom="0">
    <sodipodi:guide
       position="-190.6567,0.59168245"
       orientation="0,1150"
       id="guide3002" />
    <sodipodi:guide
       position="597.69177,659.7334"
       orientation="-720,0"
       id="guide3004" />
    <sodipodi:guide
       position="914.40182,905.03901"
       orientation="0,-1150"
       id="guide3006" />
    <sodipodi:guide
       position="-0.5916884,619.47332"
       orientation="720,0"
       id="guide3008" />
  </sodipodi:namedview>
  <title
     id="title3019">soccer pitch</title>
  <!--         -->
  <!--                  -->
  <!--      -->
  <!--         -->
  <!--      -->
  <!--         -->
  <!--       -->
  <!--         -->
  <g
     id="g3021"
     transform="matrix(0,0.78669079,-0.83094928,0,598.28348,0)">
    <title
       id="title3023">Layer 1</title>
    <rect
       id="svg_1"
       height="720"
       width="1150"
       y="-240.68858"
       x="0"
       style="fill:#008000" />
    <path
       id="svg_2"
       d="m 575,-220.68858 -525,0 0,680 1050,0 0,-680 -525,0 0,680 0,-680 z"
       inkscape:connector-curvature="0"
       style="fill:#008000;stroke:#ffffff;stroke-width:2" />
    <circle
       id="svg_3"
       r="91.5"
       cy="360"
       cx="575"
       d="m 666.5,360 c 0,50.53405 -40.96595,91.5 -91.5,91.5 -50.53405,0 -91.5,-40.96595 -91.5,-91.5 0,-50.53405 40.96595,-91.5 91.5,-91.5 50.53405,0 91.5,40.96595 91.5,91.5 z"
       sodipodi:cx="575"
       sodipodi:cy="360"
       sodipodi:rx="91.5"
       sodipodi:ry="91.5"
       style="fill-opacity:0;stroke:#ffffff;stroke-width:2"
       transform="translate(0,-240.68858)" />
    <circle
       id="svg_4"
       r="2"
       cy="360"
       cx="575"
       d="m 577,360 c 0,1.10457 -0.89543,2 -2,2 -1.10457,0 -2,-0.89543 -2,-2 0,-1.10457 0.89543,-2 2,-2 1.10457,0 2,0.89543 2,2 z"
       sodipodi:cx="575"
       sodipodi:cy="360"
       sodipodi:rx="2"
       sodipodi:ry="2"
       style="fill:#ffffff;stroke:#ffffff"
       transform="translate(0,-240.68858)" />
    <circle
       id="svg_5"
       r="2"
       cy="360"
       cx="160"
       d="m 162,360 c 0,1.10457 -0.89543,2 -2,2 -1.10457,0 -2,-0.89543 -2,-2 0,-1.10457 0.89543,-2 2,-2 1.10457,0 2,0.89543 2,2 z"
       sodipodi:cx="160"
       sodipodi:cy="360"
       sodipodi:rx="2"
       sodipodi:ry="2"
       style="fill:#ffffff;stroke:#ffffff"
       transform="translate(0,-240.68858)" />
    <circle
       id="svg_6"
       r="2"
       cy="360"
       cx="990"
       d="m 992,360 c 0,1.10457 -0.89543,2 -2,2 -1.10457,0 -2,-0.89543 -2,-2 0,-1.10457 0.89543,-2 2,-2 1.10457,0 2,0.89543 2,2 z"
       sodipodi:cx="990"
       sodipodi:cy="360"
       sodipodi:rx="2"
       sodipodi:ry="2"
       style="fill:#ffffff;stroke:#ffffff"
       transform="translate(0,-240.68858)" />
    <path
       id="svg_7"
       d="m 50,83.711411 -10,0 0,72.200019 10,0 0,-72.200019 z"
       inkscape:connector-curvature="0"
       style="fill-opacity:0;stroke:#ffffff;stroke-width:2" />
    <path
       id="svg_8"
       d="m 1100,83.711411 10,0 0,72.200019 -10,0 0,-72.200019 z"
       inkscape:connector-curvature="0"
       style="fill-opacity:0;stroke:#ffffff;stroke-width:2" />
    <path
       id="svg_9"
       d="m 50,28.711411 55,0 0,182.200019 -55,0 0,-182.200019 z"
       inkscape:connector-curvature="0"
       style="fill-opacity:0;stroke:#ffffff;stroke-width:2" />
    <path
       id="svg_10"
       d="m 1100,28.711411 -55,0 0,182.200019 55,0 0,-182.200019 z"
       inkscape:connector-curvature="0"
       style="fill-opacity:0;stroke:#ffffff;stroke-width:2" />
    <path
       id="svg_11"
       d="m 50,-81.288589 165,0 0,402.199989 -165,0 0,-402.199989 z"
       inkscape:connector-curvature="0"
       style="fill-opacity:0;stroke:#ffffff;stroke-width:2" />
    <path
       id="svg_12"
       d="m 1100,-81.288589 -165,0 0,402.199989 165,0 0,-402.199989 z"
       inkscape:connector-curvature="0"
       style="fill-opacity:0;stroke:#ffffff;stroke-width:2" />
    <path
       id="svg_13"
       d="m 215,46.186421 a 91.5,91.5 0 0 1 0,146.249999 l 0,-146.249999 z"
       inkscape:connector-curvature="0"
       style="fill:#008000;stroke:#ffffff;stroke-width:2" />
    <path
       id="svg_14"
       d="m 935,46.186421 a 91.5,91.5 0 0 0 0,146.249999 l 0,-146.249999 z"
       inkscape:connector-curvature="0"
       style="fill:#008000;stroke:#ffffff;stroke-width:2" />
    <path
       id="svg_15"
       d="m 50,-210.68858 a 10,10 0 0 0 10,-10 l -10,0 0,10 z"
       inkscape:connector-curvature="0"
       style="fill-opacity:0;stroke:#ffffff;stroke-width:2" />
    <path
       id="svg_16"
       d="m 60,459.31142 a 10,10 0 0 0 -10,-10 l 0,10 10,0 z"
       inkscape:connector-curvature="0"
       style="fill-opacity:0;stroke:#ffffff;stroke-width:2" />
    <path
       id="svg_17"
       d="m 1100,449.31142 a 10,10 0 0 0 -10,10 l 10,0 0,-10 z"
       inkscape:connector-curvature="0"
       style="fill-opacity:0;stroke:#ffffff;stroke-width:2" />
    <path
       id="svg_18"
       d="m 1090,-220.68858 a 10,10 0 0 0 10,10 l 0,-10 -10,0 z"
       inkscape:connector-curvature="0"
       style="fill-opacity:0;stroke:#ffffff;stroke-width:2" />
  </g>
</svg>
