<?xml version="1.0" encoding="utf-8"?>
<!-- Generator: Adobe Illustrator 16.0.0, SVG Export Plug-In . SVG Version: 6.00 Build 0)  -->
<!DOCTYPE svg PUBLIC "-//W3C//DTD SVG 1.1//EN" "http://www.w3.org/Graphics/SVG/1.1/DTD/svg11.dtd">
<svg version="1.1" id="Layer_1" xmlns="http://www.w3.org/2000/svg" xmlns:xlink="http://www.w3.org/1999/xlink" x="0px" y="0px"
	 width="30.959px" height="41.982px" viewBox="-164.367 585.908 30.959 41.982"
	 enable-background="new -164.367 585.908 30.959 41.982" xml:space="preserve">
<title>wood</title>
<g>
	<title>Layer 1</title>
	<path id="path3" fill="#FADCA5" d="M-133.408,627.89c0-13.97,0-27.938,0-41.909c0-0.15-19.721-0.073-21.295-0.073
		c-3.221,0-6.443,0-9.664,0c-0.43,0-0.192,4.275-0.192,4.767c0,9.34,0,18.679,0,28.019c0,2.928,0,5.855,0,8.782
		c0,0.555,0.079,0.415,0.645,0.415c1.408,0,2.815,0,4.223,0C-150.931,627.89-142.169,627.89-133.408,627.89"/>
	<path id="path5" fill="#D59758" d="M-160.626,586.02c-0.129,6.473,1.151,12.724,4.571,18.249c2.853-5.44,3.368-12.248,4.028-18.249
		c-0.673-0.188-0.479,0.777-0.513,1.229c-0.053,0.693-0.122,1.383-0.199,2.073c-0.153,1.369-0.345,2.73-0.583,4.087
		c-0.489,2.784-1.205,5.422-2.733,7.816c-1.703-1.764-2.684-4.613-3.176-6.967c-0.325-1.555-0.576-3.08-0.785-4.656
		C-160.111,588.883-159.928,585.887-160.626,586.02"/>
	<path id="path7" fill="#D59758" d="M-159.755,586.02c0.194,4.494,0.802,9.358,3.581,13.027c2.903-3.193,2.957-8.969,3.222-13.01
		c-0.432,0.034-0.298,1.975-0.336,2.5c-0.082,1.138-0.219,2.262-0.4,3.387c-0.365,2.27-1.075,4.307-2.426,6.168
		c-1.499-1.153-2.185-3.609-2.567-5.369C-158.863,591.883-159.415,586.092-159.755,586.02"/>
	<path id="path9" fill="#D59758" d="M-159.284,586.038c0.224,3.915,0.977,7.736,3.169,11.04c1.147-1.069,1.577-3.144,1.857-4.618
		c0.406-2.134,0.639-4.259,0.828-6.422c-0.095-0.006-0.191-0.012-0.286-0.018c0.123,3.58-0.833,7.098-2.399,10.282
		c-1.05-1.513-1.636-3.329-2.15-5.076C-158.474,590.517-158.95,586.066-159.284,586.038"/>
	<path id="path11" fill="#D59758" d="M-158.042,586.02c-0.13,2.439,0.757,4.762,1.868,6.881c0.878-2.196,1.473-4.512,1.504-6.881
		C-155.794,586.02-156.918,586.02-158.042,586.02"/>
	<path id="path13" fill="#D59758" d="M-161.611,586.002c0.286,4.27,0.654,8.539,1.626,12.719c0.288,1.236,0.61,2.447,0.961,3.667
		c0.235,0.813,0.839,1.534,1.168,2.331c0.849,2.059,1.367,4.173,1.8,6.353c0.29-4.19,2.047-7.8,3.032-11.81
		c0.53-2.156,0.966-4.349,1.247-6.553c0.162-1.268,0.283-2.525,0.382-3.801c0.048-0.618-0.185-2.907,0.352-2.871
		c-0.153,3.18-0.313,6.389-0.783,9.54c-0.242,1.62-0.44,3.273-0.875,4.855c-0.429,1.558-1.097,3.007-1.521,4.566
		c-1.863,6.851-1.332,14.092-1.375,21.111c-0.004,0.616-0.007,1.233-0.011,1.849c-1.178,0.307-0.683-2.295-0.695-3.007
		c-0.041-2.435-0.082-4.869-0.123-7.304c-0.047-2.792,0.099-5.58-0.635-8.296c-0.827-3.062-2.176-5.931-2.988-8.997
		c-0.784-2.96-1.4-6.054-1.642-9.109c-0.139-1.751-0.224-3.482-0.273-5.238C-162.025,586.006-161.521,586.016-161.611,586.002"/>
	<path id="path15" fill="#D59758" d="M-157.845,627.99c0.276-6.731-0.235-13.458-1.544-20.06c-0.603-3.042-2.325-5.653-3.013-8.664
		c-0.763-3.334-1.08-6.664-1.208-10.076c-0.04-1.054,0.01-2.115,0.018-3.17c-0.617-0.045-0.347,1.289-0.339,1.793
		c0.012,0.736,0.036,1.472,0.079,2.207c0.102,1.758,0.275,3.503,0.483,5.252c0.371,3.126,1.224,5.975,2.273,8.907
		c2.367,6.61,2.274,13.382,2.566,20.315C-158.505,625.092-158.841,628.325-157.845,627.99"/>
	<path id="path17" fill="#D59758" d="M-159.104,627.96c0.098-4.875-0.144-9.806-0.697-14.648c-0.269-2.356-0.555-4.74-1.177-7.034
		c-0.351-1.295-0.671-2.489-1.226-3.705c-0.597-1.31-1.213-2.046-2.206-3.107c-0.015,0.457-0.113,1.056,0.089,1.33
		c0.349,0.475,1.001,0.801,1.383,1.367c0.699,1.038,1.012,2.336,1.359,3.523c0.746,2.554,1.021,5.217,1.341,7.85
		c0.282,2.32,0.469,4.698,0.525,7.034c0.036,1.472,0.071,2.943,0.106,4.415C-159.593,625.519-159.919,628.2-159.104,627.96"/>
	<path id="path19" fill="#D59758" d="M-164.565,602.209c1.684,0.584,2.355,3.624,2.733,5.121c0.529,2.097,0.864,4.27,1.082,6.42
		c0.478,4.723,0.566,9.467,0.756,14.21c-0.523,0.044-0.337-1.645-0.357-2.054c-0.08-1.646-0.161-3.293-0.241-4.939
		c-0.105-2.147-0.18-4.297-0.371-6.438c-0.203-2.278-0.605-4.521-1.2-6.728c-0.283-1.049-0.706-2.013-1.25-2.947
		c-0.292-0.501-0.681-0.845-1.097-1.252C-164.719,603.395-164.557,602.502-164.565,602.209"/>
	<path id="path21" fill="#D59758" d="M-161.444,627.96c0.422-3.678,0.33-7.388,0.161-11.076c-0.148-3.245-0.115-8.907-3.276-10.735
		c-0.263,0.879,0.708,1.27,1.148,2.035c0.477,0.831,0.708,1.77,0.971,2.684c0.547,1.904,0.642,3.981,0.757,5.949
		c0.109,1.85,0.046,3.691-0.039,5.542c-0.066,1.437,0.174,4.501-0.915,5.602C-162.24,627.96-161.842,627.96-161.444,627.96"/>
	<path id="path23" fill="#D59758" d="M-164.565,608.917c1.931,2.285,1.806,6.474,1.876,9.278c0.071,2.882,0.416,6.175-0.767,8.885
		c-0.272,0.623-1.162,1.478-1.104,0.283c0.031-0.623,0.537-1.412,0.692-2.034c0.376-1.511,0.72-3.106,0.741-4.671
		c0.048-3.523-0.471-6.704-1.423-10.088C-164.686,610.084-164.55,609.422-164.565,608.917"/>
	<path id="path25" fill="#D59758" d="M-164.511,600.778c-0.016-2-0.032-3.998-0.048-5.998c0.066,2.35,0.565,4.697,1.611,6.804
		C-163.278,601.086-163.875,600.542-164.511,600.778"/>
	<path id="path27" fill="#D59758" d="M-164.565,614.205c0.835,3.191,0.855,6.581,0.006,9.757
		C-164.559,620.715-164.478,617.44-164.565,614.205"/>
	<path id="path29" fill="#D59758" d="M-154.718,627.96c0.012-3.192-0.051-6.384,0.003-9.575c0.056-3.308-0.075-6.803,0.615-10.05
		c0.624-2.933,2.184-5.612,2.669-8.62c0.504-3.119,0.74-6.326,0.993-9.475c0.112-1.399,0.219-2.801,0.111-4.203
		c0.093,0,0.187,0,0.28,0c-0.175,6.249-0.569,12.413-2.104,18.482c-0.333,1.318-1.042,2.686-1.211,4.001
		c-0.208,1.618-0.35,3.24-0.482,4.866c-0.263,3.249-0.304,6.519-0.286,9.776c0.009,1.594,0.065,3.186,0.115,4.778
		C-154.23,627.948-154.508,628.006-154.718,627.96"/>
	<path id="path31" fill="#D59758" d="M-153.465,627.942c0.109-6.251-0.479-12.934,0.987-19.062c0.33-1.38,1.086-2.651,1.408-3.979
		c0.367-1.51,0.704-3.025,0.998-4.551c0.648-3.363,0.409-6.855,0.438-10.266c0.009-0.986,0.017-1.974,0.025-2.961
		c0-0.036-0.042-1.489,0.267-1.104c0.144,0.18,0,1.067,0,1.285c0,1.115,0,2.23,0,3.346c0,3.301,0.176,6.573-0.367,9.834
		c-0.252,1.512-0.494,3.066-0.982,4.523c-0.469,1.4-1.062,2.693-1.382,4.148c-0.63,2.864-0.479,5.982-0.581,8.897
		c-0.081,2.317-0.163,4.635-0.244,6.952C-152.915,625.524-152.596,628.225-153.465,627.942"/>
	<path id="path33" fill="#D59758" d="M-144.418,611.34c-0.161-1.125-0.396-2.212-0.823-3.271c-0.407-1.008-1.124-1.876-1.513-2.876
		c-0.839-2.161-1.252-4.534-1.513-6.833c-0.238,2.952-1.339,5.938-2.455,8.665c-1.21,2.958-1.168,6.693-1.359,9.847
		c-0.198,3.271-0.287,6.554-0.301,9.831c-0.001,0.368-0.003,0.736-0.003,1.104c0,0.246,0.367,0.221,0.376-0.066
		c0.039-1.121,0.077-2.242,0.115-3.363c0.059-1.707,0.151-3.411,0.24-5.116c0.17-3.253,0.448-6.546,1.014-9.756
		c0.494-2.806,1.993-5.433,2.193-8.28c0.281,2.143,1.008,3.9,2.031,5.768c1.173,2.139,1.648,4.086,1.788,6.494
		c0.141,2.419,0.146,4.887-0.084,7.3c-0.235,2.478-1.104,4.741-1.319,7.203c0.66,0.151,0.489-1.439,0.532-1.914
		c0.05-0.542,0.276-1.119,0.388-1.654c0.295-1.427,0.518-2.871,0.662-4.321C-144.156,617.172-144.217,614.271-144.418,611.34"/>
	<path id="path35" fill="#D59758" d="M-151.042,627.942c-0.122-3.818-0.321-7.679-0.01-11.492c0.284-3.48,0.396-8.2,2.517-11.107
		c3.031,2.615,3.445,7.049,3.378,10.768c-0.036,1.972-0.121,3.958-0.347,5.918c-0.119,1.037-0.269,2.068-0.602,3.06
		c-0.22,0.655-0.095,3.008-0.818,2.902c0.365-3.507,1.225-6.855,1.369-10.403c0.157-3.84-0.669-7.416-2.892-10.543
		c-1.495,3.107-1.938,6.803-2.104,10.205c-0.087,1.783-0.182,3.564-0.244,5.349c-0.06,1.704-0.303,3.676,0.123,5.345
		C-150.795,627.942-150.919,627.942-151.042,627.942"/>
	<path id="path37" fill="#D59758" d="M-148.357,599.793c-0.05-4.592-0.1-9.183-0.149-13.773c0.602-0.086,0.321,1.434,0.324,1.864
		c0.013,1.626,0.024,3.253,0.037,4.88c0.019,2.551,0.037,5.104,0.057,7.655C-148.177,600.211-148.282,600.006-148.357,599.793"/>
	<path id="path39" fill="#D59758" d="M-146.853,586.02c0,3.174,0.021,6.349,0.115,9.521c0.088,2.975-0.201,6.543,1.073,9.287
		c2.665,5.74,2.308,12.557,1.691,18.717c-0.15,1.494-0.481,2.94-0.833,4.396c1.825,0.254,1.562-16.679,1.157-18.606
		c-0.284-1.355-0.834-2.797-1.349-4.082c-0.478-1.196-0.652-2.45-0.829-3.729c-0.464-3.359-0.308-6.836-0.383-10.217
		c-0.029-1.301-0.059-2.602-0.088-3.901C-146.308,586.906-146.016,585.736-146.853,586.02"/>
	<path id="path41" fill="#D59758" d="M-144.854,586.038c0.075,6.5-0.35,13.108,0.949,19.507c0.613,3.017,1.057,5.918,1.137,9.013
		c0.078,3.046-0.124,6.156-0.425,9.188c-0.141,1.42-0.299,2.823-0.736,4.186c0.774,0.238,0.981-3.034,1.056-3.652
		c0.197-1.64,0.351-3.276,0.43-4.926c0.165-3.446,0.016-6.853-0.262-10.289c-0.225-2.771-0.774-5.512-1.014-8.279
		c-0.282-3.275-0.484-6.554-0.642-9.837c-0.041-0.842-0.064-1.686-0.087-2.528C-144.463,587.858-144.16,585.947-144.854,586.038"/>
	<path id="path43" fill="#D59758" d="M-141.739,586.038c0.02,6.627-0.082,13.248,0.076,19.875
		c0.152,6.393,0.798,12.914-0.003,19.288c-0.119,0.944-0.296,1.807-0.533,2.729c1.041,0.016,0.834-0.268,0.88-1.23
		c0.038-0.809,0.079-1.618,0.107-2.427c0.057-1.635,0.111-3.269,0.135-4.903c0.049-3.475,0.04-6.944-0.023-10.418
		c-0.136-7.307-0.119-14.618-0.178-21.926C-141.281,586.584-141.048,585.827-141.739,586.038"/>
	<path id="path45" fill="#D59758" d="M-138.689,586.02c0.147,3.167,0.16,6.34-0.044,9.505c-0.2,3.096-1.012,6.126-1.195,9.239
		c-0.201,3.416-0.145,6.77,0.114,10.18c0.235,3.093,0.732,6.115,0.773,9.232c0.017,1.288,0.001,2.556-0.293,3.813
		c1.006,0,1.188,0.218,1.181-0.788c-0.007-0.91-0.029-1.819-0.062-2.729c-0.053-1.481-0.146-2.983-0.343-4.453
		c-0.434-3.25-0.955-6.425-1.089-9.71c-0.135-3.3,0.055-6.621,0.539-9.888c0.472-3.176,0.594-6.407,0.783-9.611
		c0.052-0.879,0.104-1.758,0.133-2.637C-138.173,587.604-137.775,585.748-138.689,586.02"/>
	<path id="path47" fill="#D59758" d="M-137.616,586.02c0.001,3.21-0.051,6.432-0.315,9.631c-0.267,3.206-0.971,6.414-1.229,9.649
		c-0.251,3.142-0.076,6.013,0.698,9.058c0.755,2.965,1.374,5.992,1.27,9.064c-0.052,1.522-0.104,3.045-0.155,4.567
		c0.701,0.169,0.47-0.705,0.483-1.188c0.024-0.799,0.042-1.598,0.059-2.397c0.029-1.483,0.003-2.965-0.053-4.447
		c-0.059-1.597-0.16-3.188-0.33-4.776c-0.163-1.519-0.701-2.9-0.911-4.4c-0.888-6.356,0.443-12.772,0.785-19.128
		C-137.274,590.903-136.828,585.866-137.616,586.02"/>
	<path id="path49" fill="#D59758" d="M-149.909,627.942c-0.035-2.83-0.309-5.598-0.19-8.441c0.137-3.286,0.097-6.981,1.652-9.95
		c1.823,2.766,2.093,6.268,2.084,9.479c-0.008,2.992-1.29,5.939-1.01,8.931c-1.097,0.087-0.747-0.607-0.77-1.552
		c-0.015-0.627-0.075-1.263,0.003-1.886c0.162-1.298,0.726-2.388,1.045-3.632c0.796-3.103,0.307-5.998-1.263-8.745
		c-1.176,2.343-1.503,5.397-1.289,7.981c0.098,1.177,0.366,2.37,0.262,3.551c-0.128,1.443-0.188,2.792-0.154,4.264
		C-149.662,627.942-149.785,627.942-149.909,627.942"/>
	<path id="path51" fill="#D59758" d="M-148.267,614.653c-1.266,2.185-0.801,5.088-0.358,7.43
		C-147.378,619.709-147.387,617.123-148.267,614.653"/>
	<path id="path53" fill="#D59758" d="M-148.983,627.96c-0.005-1.243-0.116-2.716,0.269-3.909
		C-148.718,624.693-148.46,627.96-148.983,627.96"/>
	<path id="path55" fill="#D59758" d="M-135.842,586.02c0,3.152,0.127,6.429-0.299,9.559c-0.183,1.341-0.78,2.661-1.132,3.973
		c-0.408,1.523-0.599,3.094-0.666,4.664c-0.112,2.641-0.085,6.197,0.927,8.665c1.16,2.828,1.091,5.534,1.149,8.549
		c0.041,2.108,0.082,4.218,0.123,6.326c0.004,0.169,0.11,0.4,0.345,0.205c0.104-0.088,0.011-0.959,0.012-1.076
		c0.005-0.8,0.007-1.6,0.01-2.399c0.012-3.035,0.092-6.104-0.27-9.119c-0.369-3.067-1.766-5.748-1.728-8.92
		c0.036-3.102,0.952-5.951,1.546-8.966c0.729-3.698,0.323-7.706,0.357-11.46C-135.592,586.02-135.717,586.02-135.842,586.02"/>
	<path id="path57" fill="#D59758" d="M-135.019,598.092c-0.938,2.402-1.626,4.91-1.82,7.485c-0.162,2.142,0.481,5.504,2.089,7.016
		C-133.516,607.88-133.02,602.631-135.019,598.092"/>
	<path id="path59" fill="#D59758" d="M-134.917,586.038c-0.001,2.715,0.032,5.43,0.126,8.143c0.041,1.202,0.018,2.487,0.423,3.625
		c0.417,1.174,0.965,2.291,0.973,3.569c-0.01-1.188,0.218-2.663-0.102-3.79c-0.234-0.826-0.605-1.438-0.646-2.34
		c-0.083-1.819-0.165-3.638-0.247-5.457C-134.415,589.243-134.227,585.883-134.917,586.038"/>
	<path id="path61" fill="#D59758" d="M-133.396,609.043c-1.356,6.046-1.562,12.289-1.452,18.48c0.005,0.278,0.259,0.711,0.259,0.272
		c0-0.354-0.002-0.706,0-1.06c0.003-0.862,0.02-1.725,0.038-2.586c0.032-1.486,0.064-2.981,0.18-4.463
		c0.128-1.633,0.199-3.326,0.594-4.922c0.438-1.775,0.362-3.502,0.379-5.349C-133.398,609.292-133.397,609.167-133.396,609.043"/>
	<path id="path63" fill="#D59758" d="M-134.232,627.972c0.002-2.895-0.32-6.58,0.836-9.292c-0.02,1.614-0.015,3.213-0.17,4.819
		c-0.083,0.847-0.153,1.695-0.23,2.542C-133.838,626.495-133.756,627.989-134.232,627.972"/>
	<path id="path65" fill="#D59758" d="M-133.856,586.02c0.002,2.656-0.314,5.838,0.448,8.402c-0.004-1.551-0.007-3.102-0.011-4.652
		C-133.419,589.201-133.032,585.815-133.856,586.02"/>
	<path id="path67" fill="#8B5C29" d="M-160,598.766c0.915,4.132,3.12,7.733,3.944,11.918c0.266-2.26,0.662-4.52,1.378-6.682
		c0.687-2.073,1.486-3.987,1.964-6.148c-0.661,2.818-1.71,5.51-2.369,8.312c-0.754,3.211-0.913,6.306-0.913,9.59
		c-0.141-2.879-0.266-5.776-1.068-8.561C-157.886,604.343-159.71,601.79-160,598.766"/>
	<path id="path69" fill="#8B5C29" d="M-159.319,593.832c0.448,2.665,1.679,5.06,3.223,7.245c1.596-1.408,2.156-4.504,2.525-6.489
		c0.524-2.816,1.046-5.698,1.109-8.567c0.036,0.006,0.071,0.012,0.107,0.018c-0.173,2.67-0.331,5.581-1.068,8.162
		c-0.729,2.555-0.941,5.006-2.673,7.156C-158.063,599.502-158.746,596.356-159.319,593.832"/>
	<path id="path71" fill="#8B5C29" d="M-156.115,598.092c1.251-1.528,1.828-3.486,2.286-5.371c-0.218,1.688-0.819,3.585-1.833,4.969
		c-0.667,0.908-0.8,0.423-1.283-0.473c-0.514-0.951-0.928-1.943-1.336-2.944C-157.805,595.495-157.221,597.305-156.115,598.092"/>
	<path id="path73" fill="#8B5C29" d="M-156.115,596.302c1.027-1.667,1.651-3.489,1.969-5.413c-0.239,2.039-0.981,3.9-2.029,5.652
		c-0.907-1.484-1.511-3.142-1.952-4.816C-157.617,593.313-156.976,594.872-156.115,596.302"/>
	<path id="path75" fill="#8B5C29" d="M-158.042,586.02c-0.001,2.453,0.615,4.777,1.868,6.881c0.288-0.533-0.986-2.393-1.201-3.064
		C-157.771,588.598-157.911,587.308-158.042,586.02"/>
	<path id="path77" fill="#8B5C29" d="M-156.174,592.901c0.587-1.334,1.141-2.771,1.235-4.237c-0.061,0.694-0.226,1.37-0.43,2.036
		C-155.559,591.319-156.283,592.286-156.174,592.901"/>
	<path id="path79" fill="#8B5C29" d="M-151.46,599.524c-0.19,1.705-0.573,3.398-1.198,4.996c-0.562,1.438-1.426,2.876-1.607,4.434
		C-153.669,605.704-152.04,602.811-151.46,599.524"/>
	<path id="path81" fill="#8B5C29" d="M-150.087,600.718c-0.318,1.37-0.44,3.03-1.042,4.302c-0.55,1.165-1.186,2.465-1.346,3.754
		c0.199-1.143,0.45-2.512,1.085-3.498C-150.601,604.051-150.458,602.124-150.087,600.718"/>
	<path id="path83" fill="#8B5C29" d="M-148.417,599.441c-0.335,1.796-0.755,3.595-1.346,5.325c-0.561,1.64-1.53,3.114-1.596,4.903
		C-150.797,606.153-148.779,602.995-148.417,599.441"/>
	<path id="path85" fill="#8B5C29" d="M-150.01,609.109c0.216-0.779,0.798-3.724,1.766-3.396c1.226,0.415,2.025,3.179,2.375,4.236
		c-0.315-1.453-0.954-3.309-2.188-4.244c-0.74-0.561-0.886,0.101-1.225,0.861C-149.644,607.377-149.833,608.262-150.01,609.109"/>
	<path id="path87" fill="#8B5C29" d="M-147.862,600.754c0.219,1.912,0.627,3.932,1.755,5.531
		C-147.23,604.766-147.53,602.565-147.862,600.754"/>
	<path id="path89" fill="#8B5C29" d="M-145.713,602.108c0.069,2.793,1.839,5.063,2.112,7.842
		C-143.949,607.202-145.397,604.838-145.713,602.108"/>
	<path id="path91" fill="#8B5C29" d="M-148.447,609.544c0.954,1.543,1.446,3.293,1.778,5.061c-0.258-1.694-0.897-3.296-1.748-4.774
		c-0.715,1.244-0.959,2.789-1.235,4.178C-149.454,612.569-149.298,610.768-148.447,609.544"/>
	<path id="path93" fill="#8B5C29" d="M-148.267,614.653c0.471,0.88,0.757,1.935,0.686,2.936c-0.017-0.94-0.227-1.898-0.716-2.709
		c-0.187,0.426-0.37,0.858-0.477,1.312C-148.694,615.67-148.593,615.08-148.267,614.653"/>
	<path id="path95" fill="#8B5C29" d="M-143.941,597.496c0.173,4.937,1.35,9.747,1.492,14.681
		C-142.727,607.24-143.507,602.413-143.941,597.496"/>
	<path id="path97" fill="#8B5C29" d="M-138.928,597.137c-0.543,3.095-0.986,6.227-1.074,9.369
		C-140.038,603.355-139.6,600.208-138.928,597.137"/>
	<path id="path99" fill="#8B5C29" d="M-138.092,596.838c-0.599,3.317-1.066,6.656-1.193,10.026
		C-139.057,603.512-138.558,600.165-138.092,596.838"/>
	<path id="path101" fill="#8B5C29" d="M-135.884,592.542c0.019,4.391-2.054,8.378-2.029,12.831c0.095-2.2,0.269-4.471,0.76-6.621
		C-136.678,596.668-135.907,594.709-135.884,592.542"/>
	<path id="path103" fill="#8B5C29" d="M-135.019,598.092c-0.759,1.82-1.278,3.723-1.582,5.67c0.447-1.584,0.784-3.434,1.552-4.895
		c1.197,1.23,1.243,3.539,1.373,5.133C-133.886,602.338-133.86,599.392-135.019,598.092"/>
	<path id="path105" fill="#8B5C29" d="M-134.154,595.108c-0.207,0.838,0.151,1.67,0.656,2.328
		C-133.936,596.747-134.141,595.918-134.154,595.108"/>
	<path id="path107" fill="#8B5C29" d="M-164.565,608.917c0.86,0.802,1.127,2.461,1.308,3.563c0.279,1.705,0.445,3.404,0.578,5.125
		c-0.079-2.839,0.036-6.8-1.91-9.07C-164.596,608.456-164.544,609.026-164.565,608.917"/>
	<path id="path109" fill="#8B5C29" d="M-164.565,606.149c2.187,0.689,2.592,4.414,2.9,6.266c-0.154-2.414-0.687-5.283-2.984-6.505
		C-164.657,605.889-164.551,606.184-164.565,606.149"/>
	<path id="path111" fill="#8B5C29" d="M-164.565,602.209c2.724,1.492,3.104,6.501,3.497,9.19c-0.359-3.323-0.933-7.216-3.461-9.607
		C-164.536,601.928-164.573,602.086-164.565,602.209"/>
	<path id="path113" fill="#FAF2E3" d="M-163.878,601.255c-0.402-0.704-0.558-1.519-0.663-2.315
		C-164.537,599.684-164.981,601.379-163.878,601.255"/>
	<path id="path115" fill="#8B5C29" d="M-164.416,596.391c0.235,1.486,0.401,2.938,1.205,4.231c0.817,1.313,1.486,2.647,1.874,4.153
		c-0.362-1.554-0.93-3.078-1.882-4.367C-164.037,599.299-164.133,597.711-164.416,596.391"/>
	<path id="path117" fill="#8B5C29" d="M-146.985,620.471c-0.459,1.468-1.158,2.819-1.193,4.386
		C-148.008,623.329-147.343,621.957-146.985,620.471"/>
	<path id="path119" fill="#8B5C29" d="M-149.55,621.187c0.115,0.695,0.268,1.444,0.179,2.148
		C-149.024,622.714-149.343,621.809-149.55,621.187"/>
	<path id="path121" fill="#8B5C29" d="M-146.03,622.559c-0.166,1.338-0.672,2.599-0.775,3.939
		C-146.489,625.232-146.031,623.874-146.03,622.559"/>
	<path id="path123" fill="#8B5C29" d="M-144.806,627.942c0.475-1.958,0.897-3.961,0.984-5.979c-0.27,1.888-0.356,4.315-1.253,6.027
		C-144.985,627.974-144.896,627.958-144.806,627.942"/>
	<path id="path125" fill="#8B5C29" d="M-143.929,627.93c0.612-2.289,0.914-4.676,0.943-7.041c-0.161,2.368-0.44,4.765-1.134,7.041
		C-144.056,627.93-143.993,627.93-143.929,627.93"/>
	<path id="path127" fill="#8B5C29" d="M-142.199,627.93c1.021-3.334,0.895-7.059,0.824-10.503c0.065,1.728,0.069,3.486-0.085,5.21
		c-0.083,0.929-0.141,1.879-0.317,2.797C-141.867,625.896-142.407,627.897-142.199,627.93"/>
	<path id="path129" fill="#8B5C29" d="M-133.396,618.68c-0.517,1.544-0.683,3.175-0.74,4.793c0.073-1.603,0.036-3.666,0.758-5.133
		C-133.384,618.454-133.39,618.567-133.396,618.68"/>
	<path id="path131" fill="#8B5C29" d="M-133.396,609.043c-0.543,2.314-0.914,4.586-1.098,6.951
		C-134.329,613.666-133.372,611.366-133.396,609.043"/>
	<path id="path133" fill="#8B5C29" d="M-137.042,609.825c0.388,1.57,1.165,3.116,1.277,4.738
		C-136.109,613.026-137.109,611.42-137.042,609.825"/>
	<path id="path135" fill="#8B5C29" d="M-164.535,627.172c0.994-1.53,1.179-3.558,1.319-5.329c-0.058,0.881-0.184,1.771-0.376,2.632
		C-163.787,625.348-164.47,626.349-164.535,627.172"/>
	<path id="path137" fill="#8B5C29" d="M-162.637,627.96c1.054-1.288,0.839-3.766,0.853-5.323c-0.002,1.359,0.208,4.428-1.056,5.311
		C-162.772,627.952-162.705,627.957-162.637,627.96"/>
</g>
</svg>
