<?xml version="1.0" encoding="utf-8"?>
<!-- Generator: Adobe Illustrator 16.0.0, SVG Export Plug-In . SVG Version: 6.00 Build 0)  -->
<!DOCTYPE svg PUBLIC "-//W3C//DTD SVG 1.1//EN" "http://www.w3.org/Graphics/SVG/1.1/DTD/svg11.dtd">
<svg version="1.1" id="Layer_1" xmlns="http://www.w3.org/2000/svg" xmlns:xlink="http://www.w3.org/1999/xlink" x="0px" y="0px"
	 width="50.145px" height="54px" viewBox="-305.5 396.5 50.145 54" enable-background="new -305.5 396.5 50.145 54"
	 xml:space="preserve">
<g>
	<path fill="#FFFFFF" d="M-277.572,398.682c3.244,4.354,0.652,12.208,0,17.25c1.654,8.846,10.15,10.85,15.75,15.75
		c-0.686,3.064-2.299,5.201-5.25,6c0.135,2.115,3.564,0.936,3,3.75c-3.151,7.484-16.022,6.188-24.75,6
		c-2.957-1.295-2.664-5.836-7.5-5.25C-301.9,424.537-298.706,398.546-277.572,398.682z M-287.322,403.932
		C-289.133,406.447-284.805,402.119-287.322,403.932L-287.322,403.932z M-285.072,403.932
		C-284.841,408.492-283.605,401.072-285.072,403.932L-285.072,403.932z M-291.822,414.432c2.986,0.449,5.847-3.105,3.75-5.25
		C-289.613,410.642-291.732,411.521-291.822,414.432z"/>
	<path d="M-287.161,403.932C-284.126,402.119-289.348,406.447-287.161,403.932L-287.161,403.932z"/>
	<path d="M-284.447,403.932C-282.675,401.072-284.167,408.492-284.447,403.932L-284.447,403.932z"/>
	<path d="M-288.068,409.182c2.527,2.145-0.922,5.699-4.524,5.25C-292.486,411.521-289.925,410.642-288.068,409.182z"/>
	<path d="M-275.37,396.843c3.85,6.424-0.936,12.597,0,20.944c3.352,7.104,12.358,8.975,17.416,14.5
		c0.354,4.086-3.041,4.705-4.354,7.25c0.779,1.43,3.535,1.026,2.613,4.027c-5.229,7.496-22.26,8.096-33.092,5.641
		c-1.244-2.608-2.918-4.819-6.966-4.834C-307.675,424.326-301.213,392.867-275.37,396.843z M-296.322,442.182
		c4.836-0.586,4.543,3.955,7.5,5.25c8.728,0.188,21.599,1.484,24.75-6c0.564-2.814-2.865-1.635-3-3.75
		c2.951-0.799,4.564-2.936,5.25-6c-5.6-4.9-14.096-6.904-15.75-15.75c0.652-5.042,3.244-12.896,0-17.25
		C-298.706,398.546-301.9,424.537-296.322,442.182z"/>
</g>
</svg>
