<?xml version="1.0" encoding="UTF-8" standalone="no"?>
<!-- Created with Inkscape (http://www.inkscape.org/) -->
<svg
   xmlns:dc="http://purl.org/dc/elements/1.1/"
   xmlns:cc="http://web.resource.org/cc/"
   xmlns:rdf="http://www.w3.org/1999/02/22-rdf-syntax-ns#"
   xmlns:svg="http://www.w3.org/2000/svg"
   xmlns="http://www.w3.org/2000/svg"
   xmlns:sodipodi="http://sodipodi.sourceforge.net/DTD/sodipodi-0.dtd"
   xmlns:inkscape="http://www.inkscape.org/namespaces/inkscape"
   width="191.23132"
   height="60.649269"
   id="svg2"
   sodipodi:version="0.32"
   inkscape:version="0.45.1"
   version="1.0"
   sodipodi:docbase="C:\Documents and Settings\Bianca\Desktop"
   sodipodi:docname="goalkeeper silhouette 2.svg"
   inkscape:output_extension="org.inkscape.output.svg.inkscape">
  <defs
     id="defs4" />
  <sodipodi:namedview
     id="base"
     pagecolor="#ffffff"
     bordercolor="#666666"
     borderopacity="1.0"
     inkscape:pageopacity="0.0"
     inkscape:pageshadow="2"
     inkscape:zoom="1.979899"
     inkscape:cx="217.10361"
     inkscape:cy="59.043453"
     inkscape:document-units="px"
     inkscape:current-layer="layer1"
     inkscape:window-width="1152"
     inkscape:window-height="811"
     inkscape:window-x="-4"
     inkscape:window-y="-4" />
  <metadata
     id="metadata7">
    <rdf:RDF>
      <cc:Work
         rdf:about="">
        <dc:format>image/svg+xml</dc:format>
        <dc:type
           rdf:resource="http://purl.org/dc/dcmitype/StillImage" />
      </cc:Work>
    </rdf:RDF>
  </metadata>
  <g
     inkscape:label="Camada 1"
     inkscape:groupmode="layer"
     id="layer1"
     transform="translate(-299.08491,-574.32778)">
    <path
       style="fill:#000000;fill-opacity:1;fill-rule:evenodd;stroke:none;stroke-width:1px;stroke-linecap:butt;stroke-linejoin:miter;stroke-opacity:1"
       d="M 300.25648,596.06243 C 302.65772,597.25142 305.60668,597.13358 307.99644,598.08379 C 310.43793,599.05457 313.00401,600.01248 315.87868,599.68022 C 321.88596,598.98586 328.4472,601.88162 334.43038,603.89906 C 340.48249,605.93975 346.59864,608.0932 351.79064,611.94375 C 353.60153,613.28676 358.587,613.93598 357.99192,615.1813 C 356.92529,617.41345 352.40092,620.21596 349.0964,620.72907 C 341.30115,621.93952 332.71625,621.1317 324.98478,618.85852 C 321.3748,617.79713 317.78429,615.35046 316.43485,614.73467 C 312.11099,612.76156 305.75074,609.27228 299.81351,611.26358 C 297.79243,611.94144 300.43381,615.57974 302.18955,616.08123 C 305.90623,617.14282 309.38805,618.8407 312.75511,620.84204 C 320.15141,625.23829 327.95507,628.91179 335.48811,633.05348 C 339.99729,635.53264 345.49503,635.05076 350.57136,634.65704 C 358.50895,634.04142 366.22175,632.10109 374.07566,631.27874 C 377.56908,630.91295 380.45563,627.91857 383.68827,626.54625 C 389.56471,624.05157 396.4388,624.18837 402.44352,622.03117 C 408.24453,619.94716 413.31368,615.24903 419.31405,614.31575 C 427.19714,613.08963 435.11741,611.50885 442.98406,609.86919 C 451.7008,608.05235 460.53824,606.37768 469.14062,604.61358 C 474.17695,603.58077 479.57569,604.91935 484.76718,603.97864 C 487.62885,603.4601 491.19053,599.77185 490.12225,597.18139 C 489.19691,594.93759 483.90526,594.91741 481.70267,595.02217 C 478.8827,595.15629 482.13834,592.00315 479.28206,592.3635 C 475.55529,592.83368 474.51419,596.85174 471.95224,597.45222 C 468.68262,599.05503 464.73515,598.44896 461.18561,598.30001 C 454.05718,598.00089 446.93932,600.84266 440.03401,599.84468 C 435.74919,599.22543 428.87682,595.48509 428.35847,593.76021 C 428.0368,592.68984 434.18048,592.30107 434.39728,589.13188 C 434.59415,586.25376 435.33327,582.88393 434.36956,580.28195 C 432.93358,576.40487 428.181,574.6922 424.24738,574.35582 C 421.78725,574.14545 418.41529,575.10445 418.1394,577.71602 C 417.94635,579.54351 416.77665,584.06052 414.80445,581.77117 C 412.28512,578.84669 408.16024,577.34485 404.84296,578.30247 C 402.03168,579.11401 400.35082,582.12421 399.03616,584.97811 C 397.26322,588.82686 394.64842,592.60889 390.82143,594.38224 C 384.12857,597.48355 377.08183,596.89484 369.71069,596.42667 C 362.25301,595.95301 353.97348,597.97254 347.28751,595.73356 C 342.46475,594.11852 337.96853,592.64862 332.11474,592.41553 C 326.26094,592.18243 318.34795,594.6124 311.74909,592.86049 C 308.98625,592.12699 306.91133,589.51782 303.79204,590.10135 C 301.69843,590.49302 297.1186,594.5087 300.25648,596.06243 z "
       id="path2170"
       sodipodi:nodetypes="cssssssssssssssssssssssscssssssssssssszsss" />
  </g>
</svg>
